<svg width="40" height="40" viewBox="0 0 40 40" fill="none" xmlns="http://www.w3.org/2000/svg">
<g id="Bell">
<path id="Vector" d="M8.78124 16.2501C8.77916 14.7681 9.07028 13.3005 9.63784 11.9316C10.2054 10.5626 11.0382 9.31954 12.0882 8.27385C13.1383 7.22817 14.3848 6.40056 15.7561 5.83869C17.1274 5.27682 18.5962 4.99181 20.0781 5.00005C26.2656 5.04693 31.2187 10.1876 31.2187 16.3907V17.5001C31.2187 23.0938 32.3906 26.3438 33.4219 28.1251C33.5314 28.3148 33.5891 28.5299 33.5893 28.749C33.5895 28.968 33.5322 29.1833 33.423 29.3732C33.3138 29.563 33.1566 29.7209 32.9672 29.8309C32.7778 29.941 32.5628 29.9993 32.3437 30.0001H7.65624C7.43719 29.9993 7.2222 29.941 7.03279 29.8309C6.84337 29.7209 6.6862 29.563 6.57701 29.3732C6.46782 29.1833 6.41045 28.968 6.41065 28.749C6.41084 28.5299 6.46859 28.3148 6.57812 28.1251C7.60937 26.3438 8.78124 23.0938 8.78124 17.5001V16.2501Z" stroke="white" stroke-width="1.5" stroke-linecap="round" stroke-linejoin="round"/>
<path id="Vector_2" d="M15 30V31.25C15 32.5761 15.5268 33.8479 16.4645 34.7855C17.4021 35.7232 18.6739 36.25 20 36.25C21.3261 36.25 22.5979 35.7232 23.5355 34.7855C24.4732 33.8479 25 32.5761 25 31.25V30" stroke="white" stroke-width="1.5" stroke-linecap="round" stroke-linejoin="round"/>
</g>
</svg>
