<svg xmlns="http://www.w3.org/2000/svg" xmlns:xlink="http://www.w3.org/1999/xlink" viewBox="0 0 118.72 126.23"><defs><style>.cls-1{fill:url(#linear-gradient);}.cls-2{fill:url(#linear-gradient-2);}.cls-3{fill:url(#linear-gradient-3);}.cls-4{fill:url(#linear-gradient-4);}.cls-5{fill:url(#linear-gradient-5);}.cls-6{fill:url(#linear-gradient-6);}</style><linearGradient id="linear-gradient" y1="63.12" x2="118.72" y2="63.12" gradientUnits="userSpaceOnUse"><stop offset="0" stop-color="#64c7e3"/><stop offset="1" stop-color="teal"/></linearGradient><linearGradient id="linear-gradient-2" x1="18.35" y1="97.49" x2="49.08" y2="97.49" xlink:href="#linear-gradient"/><linearGradient id="linear-gradient-3" x1="22.59" y1="32.11" x2="53.06" y2="32.11" xlink:href="#linear-gradient"/><linearGradient id="linear-gradient-4" x1="69.53" y1="97.49" x2="100.37" y2="97.49" xlink:href="#linear-gradient"/><linearGradient id="linear-gradient-5" x1="65.61" y1="32.12" x2="96.11" y2="32.12" xlink:href="#linear-gradient"/><linearGradient id="linear-gradient-6" x1="51.97" y1="68.26" x2="67.07" y2="68.26" xlink:href="#linear-gradient"/></defs><g id="Layer_2" data-name="Layer 2"><g id="Layer_2-2" data-name="Layer 2"><path class="cls-1" d="M89.2,117.64a11.33,11.33,0,0,1-3.12-.37c-.29-.06-.47-.13-.6.28-1.81,5.32-5.73,7.89-11.13,8.5A17.08,17.08,0,0,1,61,122.33a7.34,7.34,0,0,1-1-1c-.41-.51-.7-.5-1.16,0a14.28,14.28,0,0,1-7.27,4.25c-4.78,1.14-9.44,1-13.7-1.8a10.66,10.66,0,0,1-4.45-5.9c-.21-.67-.48-.82-1.17-.72a15.91,15.91,0,0,1-15.31-5.57,13.25,13.25,0,0,1-3.16-10.65c.07-.62-.05-.88-.71-1.07-4.1-1.16-6.78-4-8.83-7.6a17.62,17.62,0,0,1-2.44-8.94,20,20,0,0,1,2.58-9.68,1,1,0,0,0,0-1.26A28,28,0,0,1,0,58.3,31.86,31.86,0,0,1,2.15,45.19,18.3,18.3,0,0,1,11,35c.55-.28.46-.74.49-1.14a26.4,26.4,0,0,1,3.09-10.52,26.31,26.31,0,0,1,8.06-9.79,16,16,0,0,1,9.64-3.06,1.05,1.05,0,0,0,1.2-.82A13.61,13.61,0,0,1,41.3,1.88C45.14.23,49.11-.6,53.28.5A11.27,11.27,0,0,1,59,4c.22.25.37.49.7.11A12,12,0,0,1,69.93,0,19.79,19.79,0,0,1,80.61,3.72,12.94,12.94,0,0,1,85.3,9.89c.14.37.25.63.73.62,6.62-.09,11.44,3.15,15.23,8.28A28.82,28.82,0,0,1,107.09,33a3,3,0,0,0,1.65,2.62c4,2.26,6.42,5.84,8,10a31.24,31.24,0,0,1,2,11.06,28.28,28.28,0,0,1-4.35,15.74.9.9,0,0,0,0,1.11A19.82,19.82,0,0,1,117,83.36a18.6,18.6,0,0,1-4.75,12.23,12.82,12.82,0,0,1-7,4.42c-.4.1-.45.32-.42.67A15.43,15.43,0,0,1,100.29,113,14.57,14.57,0,0,1,89.2,117.64ZM57.67,31.22V8.82a2.11,2.11,0,0,0-.23-1.2,8.39,8.39,0,0,0-5.95-4.07,15.53,15.53,0,0,0-9.25,1.63,10.76,10.76,0,0,0-5.45,5.31c-.23.5-.25.76.38,1a19.58,19.58,0,0,1,7.71,6.26,1.75,1.75,0,0,1-.18,2.54,1.72,1.72,0,0,1-2.49-.46,22,22,0,0,0-2.51-2.69C37,14.73,33.93,13.34,30.15,14a14.54,14.54,0,0,0-8.73,5.23C17.37,24.07,14.79,29.53,14.8,36a1.48,1.48,0,0,1-1,1.57C9.59,39,7.11,42.17,5.46,46.09A27.77,27.77,0,0,0,3.39,58.18,25.6,25.6,0,0,0,6.51,69.62c.3.55.47.77,1.11.25A19.67,19.67,0,0,1,17,65.42c.48-.08.66-.23.63-.74A12.93,12.93,0,0,1,18,60.62a18.34,18.34,0,0,1,5.84-9.28,14.83,14.83,0,0,1,12.6-3.84,1.65,1.65,0,0,1,1.56,2,1.7,1.7,0,0,1-2.13,1.24,10.67,10.67,0,0,0-3.24,0c-4,.59-6.93,2.9-9.2,6.12a12.76,12.76,0,0,0-2.54,7.82c0,.39.08.59.52.65a16.78,16.78,0,0,1,5.19,1.81A15.73,15.73,0,0,1,35,84.83a1.81,1.81,0,0,1-1.12,1.46A1.59,1.59,0,0,1,32.18,86a1.81,1.81,0,0,1-.48-1.92,12.12,12.12,0,0,0-5.92-13.48,11.84,11.84,0,0,0-7.47-2,16.08,16.08,0,0,0-9.67,4.9C6,76.2,5.12,79.78,5.12,83.45a15.09,15.09,0,0,0,5.22,11.2,7.33,7.33,0,0,0,5.2,2.18c1.76,0,2.37.89,1.88,2.61a10.23,10.23,0,0,0,.45,7.44,12.8,12.8,0,0,0,15.53,6.56c1.7-.55,2.46,0,2.73,1.68a8.13,8.13,0,0,0,4.1,6.2c4.38,2.48,12.37,2.33,16.82-3a2.65,2.65,0,0,0,.64-1.82q0-16.78,0-33.56c0-.71-.14-1-.91-.94-3.07.05-6.15,0-9.22,0a1.54,1.54,0,0,1-1.72-1.7c0-.22,0-.45,0-.67,0-.72.31-1.65-.15-2.1s-1.38-.13-2.1-.13a2.28,2.28,0,0,1-1.84-.61c-1.09-1.12-2.22-2.21-3.31-3.33a1.7,1.7,0,1,1,2.41-2.37c.78.76,1.55,1.54,2.32,2.31A2.59,2.59,0,0,0,45.6,74c.53-.36.13-1,.24-1.54a.11.11,0,0,0,0-.08c0-.72.3-1.63-.15-2.11s-1.37-.14-2.09-.16a2.49,2.49,0,0,1-1.85-.62c-1.11-1.14-2.25-2.25-3.37-3.39a1.77,1.77,0,0,1,0-2.48,1.8,1.8,0,0,1,2.42.12c.82.8,1.63,1.62,2.44,2.43a2.56,2.56,0,0,0,2.37.52c.53-.34.17-1,.26-1.46a1,1,0,0,0,0-.25c0-2.26,0-2.3-2.25-2.25a2.8,2.8,0,0,1-2.29-1c-.89-1-1.85-1.86-2.77-2.8a1.8,1.8,0,0,1-.21-2.61,1.74,1.74,0,0,1,2.6.15,17.94,17.94,0,0,1,1.94,2,2.52,2.52,0,0,0,2.44.9c.39,0,.55-.16.55-.55,0-.73,0-1.46,0-2.18,0-1.52.55-2.06,2.08-2.06,3,0,5.92,0,8.89,0,.68,0,.88-.14.88-.86C57.66,46.21,57.67,38.72,57.67,31.22Zm3.36,0c0,7.52,0,15,0,22.56,0,.62.14.8.78.79,3.16,0,6.32,0,9.48,0a1.77,1.77,0,0,1,2,2c0,.73,0,1.46,0,2.18,0,.2-.09.44.21.57a3.07,3.07,0,0,0,2.34-.49c.79-.78,1.58-1.58,2.37-2.37a1.7,1.7,0,1,1,2.4,2.39c-.58.61-1.25,1.14-1.76,1.79A4.68,4.68,0,0,1,74,62.69a1,1,0,0,0-.25,0c-.37,0-.47.16-.47.5,0,1,0,2,0,3,0,.18,0,.38.22.48a2.92,2.92,0,0,0,2.25-.47c.87-.87,1.72-1.76,2.62-2.61a1.74,1.74,0,0,1,2.42.08A1.65,1.65,0,0,1,80.71,66c-.56.58-1.13,1.16-1.72,1.72-2.72,2.63-1.7,2.4-5.14,2.32-.43,0-.59.13-.58.58,0,1,0,1.9,0,2.85,0,.18-.07.39.17.5a3.28,3.28,0,0,0,2.2-.39c.88-.87,1.72-1.76,2.63-2.59a1.73,1.73,0,0,1,2.48,0,1.76,1.76,0,0,1-.11,2.49c-.55.59-1.21,1.1-1.7,1.73a4.94,4.94,0,0,1-5.06,2.18c-.46-.08-.65.1-.62.59,0,.7,0,1.4,0,2.1,0,1.33-.62,1.92-2,1.92-3.1,0-6.21,0-9.31,0-.84,0-1,.24-1,1q0,16.73,0,33.47a2.46,2.46,0,0,0,.69,1.88,20.61,20.61,0,0,0,1.5,1.46c4.2,3.3,8.89,3.82,13.83,2.18a8,8,0,0,0,5.54-6.86c.28-1.76,1.15-2.3,2.8-1.62A10.52,10.52,0,0,0,92,114a12.63,12.63,0,0,0,9.19-14.75c-.34-1.62.29-2.44,1.91-2.42a6.24,6.24,0,0,0,3.79-1.12c4.46-3.22,6.89-7.57,6.61-13.13-.23-4.42-1.67-8.34-5.62-10.93-2.51-1.65-5.12-3-8.19-3.09-3.71-.1-6.77,1.55-9.37,4C87,75.7,86.19,79.69,87,84.08c.23,1.23-.24,2.11-1.3,2.31s-1.78-.45-2-1.65a16.07,16.07,0,0,1,.1-7.3C85.49,71,90,67.35,96.21,65.57c1.74-.51,1.76-.46,1.53-2.3a14.78,14.78,0,0,0-5.29-9.51,11.48,11.48,0,0,0-9.9-2.92,1.68,1.68,0,0,1-.48-3.33,14.22,14.22,0,0,1,6.29.29c6.91,1.74,13,9.53,12.77,16.72,0,.4-.11.78.54.89A19.31,19.31,0,0,1,111,69.77c.63.51.87.54,1.29-.23a26.13,26.13,0,0,0,3.07-13.7,26.48,26.48,0,0,0-2.93-11.57A13.22,13.22,0,0,0,105,37.6a1.53,1.53,0,0,1-1.1-1.6,23.85,23.85,0,0,0-3.82-12.89C98,19.7,95.51,16.66,91.75,15c-3.54-1.55-7.06-1.74-10.48.45a20,20,0,0,0-4.72,4.32,1.74,1.74,0,0,1-2.54.54,1.78,1.78,0,0,1-.09-2.67,19.48,19.48,0,0,1,7.76-6.19c.49-.21.46-.45.3-.81A9.42,9.42,0,0,0,79.7,7.38a15.87,15.87,0,0,0-9.31-3.92,9.07,9.07,0,0,0-7.47,2.16,5,5,0,0,0-1.93,4C61.09,16.83,61,24,61,31.21Zm8.89,37.06c0-3.19,0-6.38,0-9.56,0-.58-.06-.83-.75-.82q-9.6,0-19.2,0c-.63,0-.8.17-.79.79q0,9.57,0,19.12c0,.68.22.84.86.84q9.52,0,19,0c.72,0,.86-.23.86-.9C69.9,74.58,69.92,71.42,69.92,68.27Z"/><path class="cls-2" d="M42.66,99.2c5.41,4,6.91,9.56,6.29,15.93a4.58,4.58,0,0,1-.2.89,1.65,1.65,0,0,1-2.07,1.22,1.71,1.71,0,0,1-1.17-2.16,13.7,13.7,0,0,0-2.51-11,9.68,9.68,0,0,0-4.72-3.2,3,3,0,0,0-1.38-.1A17.69,17.69,0,0,1,24,97.7c-3.25-2.34-4.83-5.69-5.43-9.56a24.41,24.41,0,0,1,.33-8.89A1.71,1.71,0,0,1,21,77.72c1,.22,1.44,1.1,1.2,2.3a18.32,18.32,0,0,0,.62,10.84c1.36,3.33,4,5.15,7.31,6.11,5.23,1.52,10,.25,14.36-2.72,1.25-.84,2.6-.43,2.87.94A1.69,1.69,0,0,1,46.55,97,22.76,22.76,0,0,1,42.66,99.2Z"/><path class="cls-3" d="M22.6,27.33a12.32,12.32,0,0,1,.86-4.82,1.7,1.7,0,1,1,3.17,1.18,9.86,9.86,0,0,0,3.14,11.53,16.81,16.81,0,0,0,11.3,4.38,15.23,15.23,0,0,0,9.18-3.16,1.7,1.7,0,0,1,2.1-.14A1.63,1.63,0,0,1,53,38.14a1.76,1.76,0,0,1-.85,1.09,18.31,18.31,0,0,1-9.66,3.64c-6.1.5-11.28-1.7-15.7-5.75A12.91,12.91,0,0,1,22.6,27.33Z"/><path class="cls-4" d="M76.07,99.19A20.71,20.71,0,0,1,72.23,97a1.74,1.74,0,0,1-.61-2.59c.57-.78,1.61-.81,2.61-.15,4.35,2.91,9,4.18,14.21,2.7,5.49-1.57,8.06-5.15,8.49-10.9a21.9,21.9,0,0,0-.5-6.3,1.64,1.64,0,0,1,1.15-2,1.56,1.56,0,0,1,2,1C100.86,84.43,100.88,90,97.37,95c-2.39,3.39-5.94,4.93-9.89,5.7a18.52,18.52,0,0,1-6,.08,4.62,4.62,0,0,0-2.6.78c-3.23,1.61-4.83,4.41-5.58,7.81a12.84,12.84,0,0,0-.09,5.88A1.68,1.68,0,0,1,70,116a13.83,13.83,0,0,1-.19-6.07c.57-3.47,1.71-6.71,4.38-9.19C74.74,100.24,75.39,99.75,76.07,99.19Z"/><path class="cls-5" d="M96.11,27.48A13.26,13.26,0,0,1,90.86,38,20.11,20.11,0,0,1,77.56,43a18.69,18.69,0,0,1-11-3.68,1.82,1.82,0,0,1-.66-2.54c.63-.88,1.67-.94,2.71-.16a15.66,15.66,0,0,0,17.71.53A14.28,14.28,0,0,0,91,32.91a9.72,9.72,0,0,0,1-9.26,1.67,1.67,0,0,1,.28-1.79A1.56,1.56,0,0,1,94,21.34a1.71,1.71,0,0,1,1.27,1.21A13.13,13.13,0,0,1,96.11,27.48Z"/><path class="cls-6" d="M67.07,68.3v5.78a1.56,1.56,0,0,1-1.73,1.77q-5.82,0-11.65,0A1.61,1.61,0,0,1,52,74.06V62.66c0-1.33.56-1.93,1.91-2,.76,0,1.51,0,2.27,0h8.63c1.8,0,2.29.5,2.29,2.27Zm-3.36,0c0-1.23,0-2.46,0-3.69,0-.46-.12-.63-.6-.63q-3.6,0-7.2,0c-.49,0-.61.18-.6.64q0,3.63,0,7.28c0,.43.11.57.56.57,2.43,0,4.85,0,7.28,0,.45,0,.57-.15.56-.58C63.7,70.74,63.71,69.54,63.71,68.34Z"/></g></g></svg>