<svg xmlns="http://www.w3.org/2000/svg" xmlns:xlink="http://www.w3.org/1999/xlink" viewBox="0 0 1323.54 243"><defs><style>.cls-1{fill:url(#linear-gradient);}</style><linearGradient id="linear-gradient" x1="677.97" y1="296.29" x2="655.87" y2="43.76" gradientUnits="userSpaceOnUse"><stop offset="0" stop-color="teal" stop-opacity="0"/><stop offset="1" stop-color="#64c7e3"/></linearGradient></defs><g id="Layer_2" data-name="Layer 2"><g id="Layer_2-2" data-name="Layer 2"><path class="cls-1" d="M.1,180l27-9,36,9,36-54,18,27h36l36,18,45-36,18,18,45-63,9,9,27-27,45,36,36-27,27,18,18-18,54.44,115.77,38.63-44.61L576.1,180l45-36,45,27,18-9,18,9,54-45,27,18,36-18h18l36-18,45,9,54-54,27,45,108-36,27,18,36-45,18,9,54-54,45,36,36-9V207a23.28,23.28,0,0,1,0,9c-2.62,13.05-17,23.19-36,27H45.1c-4.76-.38-25.16-2.53-36-18C1.25,213.78.55,198.58.1,189-.07,185.27,0,182.16.1,180Z"/></g></g></svg>