<svg xmlns="http://www.w3.org/2000/svg" xmlns:xlink="http://www.w3.org/1999/xlink" viewBox="0 0 77.11 77.12"><defs><style>.cls-1{fill:url(#linear-gradient);}.cls-2{fill:url(#linear-gradient-2);}.cls-3{fill:#fff;}</style><linearGradient id="linear-gradient" y1="61.68" x2="77.11" y2="61.68" gradientUnits="userSpaceOnUse"><stop offset="0" stop-color="#64c7e3"/><stop offset="1" stop-color="teal"/></linearGradient><linearGradient id="linear-gradient-2" x1="15.5" y1="22.48" x2="77.09" y2="22.48" xlink:href="#linear-gradient"/></defs><g id="Layer_2" data-name="Layer 2"><g id="Layer_2-2" data-name="Layer 2"><path class="cls-1" d="M0,47.32a2.34,2.34,0,0,1,2.23-1.08c3.84,0,7.67,0,11.51,0,1.52,0,2.14.6,2.19,2.12,0,.58,0,1.16,0,1.73,0,.79.07.84.73.43a18,18,0,0,1,4.13-2A16.32,16.32,0,0,1,35.93,51a6.06,6.06,0,0,0,4,1.29c3-.1,5.91,0,8.87,0,3.93,0,6.41,2.18,6.92,6.06.11.84.5.27.72.13q5.38-3.57,10.76-7.17a6.44,6.44,0,0,1,2.9-1.16,6.21,6.21,0,0,1,4.18,11.38c-4,2.81-8.08,5.59-12.12,8.39-1,.7-2,1.38-3,2.1a11.39,11.39,0,0,1-6.76,2.14H17.16c-1.13,0-1.14,0-1.22,1.1a2.15,2.15,0,0,1-1.19,1.87c-4.73,0-9.47,0-14.21,0-.45,0-.54-.1-.54-.54Q0,61.94,0,47.32Zm35,23.3c5.64,0,11.28,0,16.91,0a9.17,9.17,0,0,0,5.62-1.75c3.58-2.54,7.2-5,10.81-7.5,1.38-1,2.78-1.89,4.13-2.89a2.58,2.58,0,0,0,1-2.91,2.62,2.62,0,0,0-2.2-2,2.87,2.87,0,0,0-2.25.62c-4.63,3.09-9.26,6.16-13.88,9.26A8.66,8.66,0,0,1,50.24,65c-5.69,0-11.38,0-17.07,0a4.49,4.49,0,0,1-.9,0,1.76,1.76,0,0,1-1.45-1.68,1.72,1.72,0,0,1,1.35-1.68,4.67,4.67,0,0,1,1.12-.1H48.93a4,4,0,0,0,1.41-.14,2.84,2.84,0,0,0-.93-5.51c-3.23,0-6.47-.11-9.69,0A8,8,0,0,1,34.14,54a12.85,12.85,0,0,0-13.81-1.54c-1.25.56-2.38,1.39-3.59,2A1.35,1.35,0,0,0,16,55.91c0,4.56,0,9.12,0,13.68,0,1,0,1,1.06,1Zm-31.66-9q0,5.64,0,11.27c0,.54,0,.92.75.91,2.55,0,5.11,0,7.67,0,.54,0,.75-.19.75-.74q0-11.28,0-22.55c0-.69-.23-.92-.91-.91-2.43,0-4.86,0-7.29,0-.76,0-1,.23-1,1C3.35,54.24,3.34,57.93,3.34,61.61Z"/><path class="cls-2" d="M52.57,20.72c-.16.77-.29,1.51-.46,2.23a18.56,18.56,0,0,1-36.46-2.18A18.52,18.52,0,0,1,31.68.2a33.13,33.13,0,0,1,16,2.33C58.91,6.9,66.49,14.83,70.58,26.09c.34.92.59,1.86.84,2.81a.72.72,0,0,0,.84.64c.95,0,1.9,0,2.85,0a1.77,1.77,0,0,1,1.8,1,1.84,1.84,0,0,1-.38,2.08c-3.19,3.81-6.35,7.63-9.53,11.44-1,1.19-2.1,1.21-3.1,0q-4.83-5.76-9.63-11.55a1.78,1.78,0,0,1,1.43-3h2.11c.34,0,.47-.14.33-.46a24.18,24.18,0,0,0-5.4-8.33ZM34.1,33.61A15.06,15.06,0,1,0,19,18.59,15,15,0,0,0,34.1,33.61Zm14.29-27c.1.25.11.33.16.38a18.31,18.31,0,0,1,3.76,8.18,1.48,1.48,0,0,0,.57.92,28,28,0,0,1,3.42,3.38,29.41,29.41,0,0,1,6,11.22,1.76,1.76,0,0,1-.72,2.1,3,3,0,0,1-1.6.32c-.19,0-.44-.1-.53.14s.13.31.24.44c1.73,2.08,3.47,4.15,5.18,6.24.43.53.69.46,1.09,0,1.68-2.06,3.39-4.08,5.09-6.13.13-.16.41-.33.29-.55s-.41-.11-.62-.11c-1.48,0-2-.48-2.34-1.82a34.8,34.8,0,0,0-13.3-20.73A32.46,32.46,0,0,0,48.39,6.56Z"/><path class="cls-3" d="M34.1,7a1.61,1.61,0,0,1,1.67,1.67,1.32,1.32,0,0,0,.86,1.24,5.24,5.24,0,0,1,2.79,3.54,1.67,1.67,0,0,1-1,2.09,1.69,1.69,0,0,1-2.19-1.06c-.07-.19-.13-.38-.21-.56a2.13,2.13,0,0,0-2.25-1.27,2.17,2.17,0,0,0-1.82,2,2.2,2.2,0,0,0,1.6,2.12,3.7,3.7,0,0,0,.81.13,5.22,5.22,0,0,1,4.74,3.28,5.22,5.22,0,0,1-.79,5.71,5.1,5.1,0,0,1-1.89,1.46.94.94,0,0,0-.63.9c-.08,1.22-.72,1.91-1.7,1.91s-1.64-.73-1.72-1.9a1,1,0,0,0-.62-.91,5.34,5.34,0,0,1-2.94-3.42,1.76,1.76,0,0,1,1.06-2.39c.92-.29,1.73.22,2.15,1.36a2.06,2.06,0,0,0,1.89,1.56A2,2,0,0,0,36,23.29a2.06,2.06,0,0,0-.36-2.37,2.46,2.46,0,0,0-1.77-.68,5.35,5.35,0,0,1-4.72-3.11,5.26,5.26,0,0,1,.47-5.56,4.62,4.62,0,0,1,2-1.73,1.09,1.09,0,0,0,.74-1.07C32.45,7.59,33.09,7,34.1,7Z"/></g></g></svg>