<svg xmlns="http://www.w3.org/2000/svg" xmlns:xlink="http://www.w3.org/1999/xlink" viewBox="0 0 111.14 129.43"><defs><style>.cls-1{fill:url(#linear-gradient);}.cls-2{fill:url(#linear-gradient-2);}.cls-3{fill:url(#linear-gradient-3);}</style><linearGradient id="linear-gradient" y1="29.53" x2="111.14" y2="29.53" gradientUnits="userSpaceOnUse"><stop offset="0" stop-color="#64c7e3"/><stop offset="1" stop-color="teal"/></linearGradient><linearGradient id="linear-gradient-2" x1="20.26" y1="112.49" x2="91.3" y2="112.49" xlink:href="#linear-gradient"/><linearGradient id="linear-gradient-3" x1="20.62" y1="75.39" x2="90.72" y2="75.39" xlink:href="#linear-gradient"/></defs><g id="Layer_2" data-name="Layer 2"><g id="Layer_2-2" data-name="Layer 2"><path class="cls-1" d="M55.6,59Q30.06,59,4.51,59a12.2,12.2,0,0,1-1.82-.08A3.08,3.08,0,0,1,0,56a3,3,0,0,1,2.39-3.14,7.77,7.77,0,0,1,1.67-.18c5.17,0,10.34,0,15.51,0,1.06,0,1.38-.23,1.39-1.34,0-6.26-.18-12.52.1-18.77a47.6,47.6,0,0,1,1.16-6.92c.88-4.55,3.19-8.39,5.91-12A31.21,31.21,0,0,1,38.68,4.4c9.84-5.06,20-6,30.39-1.62a27.77,27.77,0,0,1,9,5.4c3,3,6.19,5.85,8.11,9.73a38.5,38.5,0,0,1,4.4,17.47c0,5.25,0,10.51,0,15.77,0,1.24.4,1.5,1.54,1.5,5.13,0,10.25,0,15.38.05,3.19,0,4.54,2.17,3.19,5A2.17,2.17,0,0,1,108.9,59a8.13,8.13,0,0,1-1.56.1H55.6ZM53.69,43.25c11.15,0,20.18,0,29.22,0,1.24,0,1.54-.39,1.49-1.55-.08-2.08,0-4.17,0-6.25.09-6.82-2.24-12.81-6.15-18.27A26.8,26.8,0,0,0,69.67,10,27.14,27.14,0,0,0,53.58,6.24a28.8,28.8,0,0,0-17.39,7.62C31.63,17.92,29.06,23.17,27.7,29c-1,4.15-.44,8.39-.59,12.59,0,1.12.29,1.49,1.45,1.52C37.64,43.34,46.72,43.19,53.69,43.25Z"/><path class="cls-2" d="M55.63,129.39q-15.71,0-31.41,0c-2.8,0-3.95-1.15-3.95-3.95q0-13,0-26.07a4.82,4.82,0,0,1,.22-1.8c.83-2.12,3.13-2.59,5-1q4.46,3.87,8.86,7.81c3.76,3.33,7.55,6.65,11.26,10,3.13,2.85,6.5,5.43,9.39,8.54.38.41.75.34,1.13,0,2.21-2,4.51-3.92,6.66-6,1.48-1.43,3.21-2.63,4.71-4.06,3.36-3.2,7.07-6,10.35-9.26,2.59-2.58,5.62-4.61,8.17-7.21a2.62,2.62,0,0,1,3.08-.65,2.91,2.91,0,0,1,2,2.68c.1,2.43.2,4.86.21,7.29,0,6.43,0,12.86,0,19.29,0,3.24-1.16,4.38-4.38,4.38H55.63Z"/><path class="cls-3" d="M73.72,88a16.46,16.46,0,0,1-7.44-1.15c-4.75-2.1-7.13-5.94-7.91-10.93-.3-2-.67-3.94-.92-5.91-.11-.82-.41-1.06-1.23-1.06-2.2,0-2.14,0-2.45,2.18s-.6,4.64-1.17,6.92A12.65,12.65,0,0,1,48,85,13.41,13.41,0,0,1,39.36,88a36.14,36.14,0,0,1-6.24-.2,13.44,13.44,0,0,1-9.78-6.57A14.32,14.32,0,0,1,22,75.68c-.52-4-.86-7.94-1.31-11.91-.09-.77.13-1,.88-1,1.69,0,3.39,0,5.08,0H89.27c1.59,0,1.54,0,1.37,1.55-.4,3.8-.76,7.6-1.11,11.4a13.54,13.54,0,0,1-3.16,7.83,12.87,12.87,0,0,1-7.63,4.15A29.44,29.44,0,0,1,73.72,88Z"/></g></g></svg>