<svg xmlns="http://www.w3.org/2000/svg" xmlns:xlink="http://www.w3.org/1999/xlink" viewBox="0 0 51.63 63"><defs><style>.cls-1{fill:url(#linear-gradient);}.cls-2{fill:url(#linear-gradient-2);}</style><linearGradient id="linear-gradient" y1="49.03" x2="51.63" y2="49.03" gradientUnits="userSpaceOnUse"><stop offset="0" stop-color="#64c7e3"/><stop offset="1" stop-color="teal"/></linearGradient><linearGradient id="linear-gradient-2" x1="9.13" y1="16.69" x2="42.5" y2="16.69" xlink:href="#linear-gradient"/></defs><g id="Layer_2" data-name="Layer 2"><g id="Layer_2-2" data-name="Layer 2"><path class="cls-1" d="M25.79,63H.31C0,63,0,63,0,62.69,0,61.11,0,59.53,0,58A25.11,25.11,0,0,1,3.06,47a25.37,25.37,0,0,1,13.58-11.9.56.56,0,0,1,.49,0,20.29,20.29,0,0,0,17.35,0,.64.64,0,0,1,.54,0,25.39,25.39,0,0,1,12.74,10.5,25.11,25.11,0,0,1,3.7,10.7,32.27,32.27,0,0,1,.17,3.54c0,1,0,1.92,0,2.89,0,.21-.05.26-.26.26Z"/><path class="cls-2" d="M9.13,16.9a16.69,16.69,0,1,1,17.3,16.46A16.68,16.68,0,0,1,9.13,16.9Z"/></g></g></svg>