<svg xmlns="http://www.w3.org/2000/svg" xmlns:xlink="http://www.w3.org/1999/xlink" viewBox="0 0 51.04 51.53"><defs><style>.cls-1{fill:url(#linear-gradient);}.cls-2{fill:url(#linear-gradient-2);}</style><linearGradient id="linear-gradient" y1="25.76" x2="51.04" y2="25.76" gradientUnits="userSpaceOnUse"><stop offset="0" stop-color="#64c7e3"/><stop offset="1" stop-color="teal"/></linearGradient><linearGradient id="linear-gradient-2" x1="38.01" y1="30.39" x2="42.36" y2="30.39" xlink:href="#linear-gradient"/></defs><g id="Layer_2" data-name="Layer 2"><g id="Layer_2-2" data-name="Layer 2"><path class="cls-1" d="M24.29,51.53H5.23A5,5,0,0,1,.48,48.66,5.3,5.3,0,0,1,0,46.24V12.83A4.94,4.94,0,0,1,2,8.69a5.12,5.12,0,0,1,3.21-1h14a1.56,1.56,0,0,0,.82-.2L32.47.55A3.34,3.34,0,0,1,34.73,0a3,3,0,0,1,2.16,1.59C37.93,3.5,39,5.36,40,7.24a.75.75,0,0,0,.76.45,21,21,0,0,1,3.55.07,4.77,4.77,0,0,1,4,3.33A5.49,5.49,0,0,1,48.57,13c0,3.51,0,7,0,10.55,0,.37.09.5.47.47.55,0,1.09,0,1.64,0,.29,0,.36.1.36.38,0,3.95,0,7.91,0,11.86,0,.3-.08.41-.39.4-.56,0-1.12,0-1.68,0-.32,0-.41.09-.41.41q0,4.66,0,9.32a5,5,0,0,1-2,4.16,4.9,4.9,0,0,1-3,1H24.29ZM15.91,9.75l0-.09H5.22A3,3,0,0,0,2,12.9V46.31a3.68,3.68,0,0,0,.12,1,3,3,0,0,0,3.05,2.18h7.52q15.32,0,30.64,0a3.1,3.1,0,0,0,3.27-3.26c-.06-3.08,0-6.16,0-9.24,0-.33-.08-.44-.42-.44-2.21,0-4.42,0-6.63,0a6.05,6.05,0,0,1-4.2-1.54,6.17,6.17,0,0,1-2.06-5.16A6,6,0,0,1,39,24c2.37-.08,4.75,0,7.12,0,.34,0,.43-.09.43-.43,0-2.91,0-5.81,0-8.71,0-.66.09-.58-.59-.58H6a2.55,2.55,0,0,1-.73-.07,1,1,0,0,1-.4-1.62,1.24,1.24,0,0,1,.94-.31c1.47,0,2.94,0,4.42,0a3.64,3.64,0,0,0,2.08-.53C13.49,11.06,14.71,10.42,15.91,9.75Zm-.31,2.46c.11.12.23.07.33.07h24.2c.41,0,.37-.11.21-.4-.73-1.28-1.43-2.56-2.15-3.85-1-1.8-2-3.59-3-5.39a1,1,0,0,0-1.58-.46l-.29.15Q25.57,6.66,17.8,11ZM43.87,34.62H48.7c.24,0,.36,0,.36-.33q0-4,0-8c0-.26-.08-.35-.35-.35-3.09,0-6.18,0-9.28,0-3.67.05-5.09,3.77-3.68,6.46a3.93,3.93,0,0,0,3.71,2.17Zm.77-22.33h1.59c.24,0,.29-.06.25-.3a2.94,2.94,0,0,0-2.8-2.32c-.67,0-1.34,0-2,0-.23,0-.3,0-.17.27.4.71.8,1.42,1.18,2.14a.39.39,0,0,0,.4.22Z"/><path class="cls-2" d="M42.36,30.45a2.18,2.18,0,1,1-2.12-2.24A2.18,2.18,0,0,1,42.36,30.45Z"/></g></g></svg>